<svg width="68" height="68" viewBox="0 0 68 68" fill="none" xmlns="http://www.w3.org/2000/svg">
<path d="M33.9999 0C15.2223 0 0 15.2223 0 33.9999C0 52.7776 15.2223 67.9999 33.9999 67.9999C52.7776 67.9999 67.9999 52.7776 67.9999 33.9999C67.9799 15.2307 52.7693 0.0200642 33.9999 0ZM52.7169 23.5741L28.4312 47.8598C27.4828 48.808 25.9455 48.808 24.9972 47.8598L15.2829 38.1455C14.3181 37.2137 14.2914 35.6763 15.2231 34.7116C16.1549 33.7468 17.6923 33.72 18.6571 34.6518C18.6773 34.6714 18.6972 34.6912 18.7169 34.7116L26.7142 42.7089L49.283 20.1401C50.2478 19.2084 51.7852 19.2351 52.7169 20.1998C53.6259 21.1409 53.6259 22.6329 52.7169 23.5741Z" fill="#D8E1F7"/>
</svg>
