<?xml version="1.0" encoding="utf-8"?>
<!-- Generator: Adobe Illustrator 24.3.0, SVG Export Plug-In . SVG Version: 6.00 Build 0)  -->
<svg version="1.1" id="Слой_1" xmlns="http://www.w3.org/2000/svg" xmlns:xlink="http://www.w3.org/1999/xlink" x="0px" y="0px"
	 viewBox="0 0 193 43" style="enable-background:new 0 0 193 43;" xml:space="preserve">
<style type="text/css">
	.st0{fill:url(#SVGID_1_);}
	.st1{fill:#8569F9;}
	.st2{fill:#BAB3FF;}
	.st3{fill:#1B1B1B;}
</style>
<linearGradient id="SVGID_1_" gradientUnits="userSpaceOnUse" x1="10.6223" y1="45.0964" x2="51.6804" y2="-1.936" gradientTransform="matrix(1 0 0 -1 0 43)">
	<stop  offset="0" style="stop-color:#764EF5"/>
	<stop  offset="0.16" style="stop-color:#754DF3"/>
	<stop  offset="0.23" style="stop-color:#704AEC"/>
	<stop  offset="0.28" style="stop-color:#6845E0"/>
	<stop  offset="0.32" style="stop-color:#5C3ECE"/>
	<stop  offset="0.35" style="stop-color:#4C35B8"/>
	<stop  offset="0.38" style="stop-color:#3A299C"/>
	<stop  offset="0.39" style="stop-color:#342694"/>
	<stop  offset="0.66" style="stop-color:#342694"/>
	<stop  offset="0.69" style="stop-color:#3D2BA1"/>
	<stop  offset="0.78" style="stop-color:#563AC5"/>
	<stop  offset="0.87" style="stop-color:#6745E0"/>
	<stop  offset="0.94" style="stop-color:#724CEF"/>
	<stop  offset="1" style="stop-color:#764EF5"/>
</linearGradient>
<path class="st0" d="M5.8,0.4l34,39.4c0.9,1,2,1.8,3.2,2.4c1.2,0.6,2.5,0.8,3.9,0.8H57L23,3.6c-0.9-1-2-1.8-3.2-2.4
	c-1.2-0.6-2.5-0.8-3.9-0.8H5.8z"/>
<path class="st1" d="M87.4,5.2l3.5-4.9H40.7c-1.7,0-3.4,0.4-4.9,1.2c-1.5,0.8-2.9,1.9-3.9,3.3l-3.5,4.9L21.7,19H0l27.9,9.4h-13
	L4.4,43h18.9c1.7,0,3.4-0.4,4.9-1.2c1.5-0.8,2.9-1.9,3.9-3.3l7.2-10.1h18.1c1.7,0,3.4-0.4,4.9-1.2c1.5-0.8,2.8-1.9,3.9-3.3l3.5-4.9
	H46.1l6.7-9.3h25.8c1.7,0,3.4-0.4,4.9-1.2S86.4,6.6,87.4,5.2z"/>
<path class="st2" d="M27.9,28.4c-1.1,0.1-2.2,0.1-3.2,0.2c-1.1,0-2.2,0.1-3.2,0.1c-1.1,0-2.2,0.1-3.2,0.1c-1.1,0-2.2,0-3.2,0
	l0.3-0.2c-0.9,1.2-1.7,2.5-2.6,3.7c-0.9,1.2-1.8,2.4-2.7,3.6c-1.8,2.4-3.6,4.8-5.5,7.1c1.6-2.5,3.3-5,5-7.5c0.9-1.2,1.7-2.5,2.6-3.7
	c0.9-1.2,1.7-2.4,2.6-3.6l0.1-0.2h0.2c1.1,0,2.2,0,3.2,0c1.1,0,2.2,0,3.2,0.1c1.1,0,2.2,0.1,3.2,0.1C25.7,28.3,26.8,28.3,27.9,28.4z
	"/>
<path class="st2" d="M90.9,0.4c-6.5,0.1-13,0.2-19.4,0.3l-9.7,0.1l-9.7,0l-9.7,0c-0.8,0-1.6,0-2.4,0c-2.4,0.2-4.6,1.1-6.3,2.8
	C33,4.1,32.4,4.7,32,5.3l-1.4,2l-2.9,4c-1.9,2.6-3.8,5.3-5.8,7.9l-0.1,0.1h-0.1l-5.4,0l-5.4-0.1l-5.4-0.1L0,19l5.4-0.1l5.4-0.1
	l5.4-0.1l5.4,0l-0.2,0.1c1.9-2.7,3.8-5.3,5.7-8l2.8-4l1.4-2c0.5-0.7,1-1.3,1.6-1.9c1.2-1.2,2.7-2,4.3-2.5C38.2,0.3,39,0.1,39.8,0
	c0.8-0.1,1.6,0,2.5,0L52,0l9.7,0l9.7,0.1C77.9,0.2,84.4,0.3,90.9,0.4z"/>
<path class="st2" d="M69.8,19l-24.2,0.6l0.5-0.6L69.8,19z"/>
<path class="st3" d="M99.4,13.9v1.6h-6.5v5.1h5.3v1.6h-5.3v6.8h-2V13.9H99.4z"/>
<path class="st3" d="M103.7,13.9v15.2h-2V13.9H103.7z"/>
<path class="st3" d="M118.9,29.1h-2L109,17v12.1h-2V13.9h2l7.9,12.1V13.9h2V29.1z"/>
<path class="st3" d="M131.5,13.9v1.6h-4.1v13.6h-2V15.5h-4.1v-1.6H131.5z"/>
<path class="st3" d="M136.9,28.3c-1.1-0.7-2.1-1.6-2.7-2.8c-0.7-1.2-1-2.6-1-4c0-1.4,0.3-2.8,1-4c0.6-1.1,1.6-2.1,2.7-2.7
	c1.2-0.6,2.5-1,3.8-1c1.3,0,2.7,0.3,3.8,1c1.1,0.6,2.1,1.6,2.7,2.7c0.7,1.2,1,2.6,1,4c0,1.4-0.3,2.8-1,4c-0.6,1.2-1.6,2.1-2.7,2.8
	c-1.2,0.6-2.5,1-3.8,1C139.4,29.3,138.1,28.9,136.9,28.3L136.9,28.3z M143.6,26.8c0.8-0.5,1.5-1.2,2-2.1c0.5-1,0.7-2.1,0.7-3.2
	c0-1.1-0.2-2.2-0.7-3.2c-0.5-0.9-1.1-1.6-2-2.1c-0.9-0.5-1.9-0.7-2.9-0.7c-1,0-2,0.3-2.9,0.7c-0.8,0.5-1.5,1.2-2,2.1
	c-0.5,1-0.7,2.1-0.7,3.2c0,1.1,0.2,2.2,0.7,3.2c0.5,0.9,1.1,1.6,2,2.1c0.9,0.5,1.8,0.7,2.8,0.7C141.8,27.5,142.7,27.3,143.6,26.8
	L143.6,26.8z"/>
<path class="st3" d="M159.4,13.9v1.6h-6.5v5.1h5.3v1.6h-5.3v6.8h-2V13.9H159.4z"/>
<path class="st3" d="M163.8,27.5h5.3v1.6h-7.2V13.9h2V27.5z"/>
<path class="st3" d="M173.1,15.5v5.1h5.5v1.6h-5.5v5.2h6.1v1.6h-8.1V13.9h8.1v1.6H173.1z"/>
<path class="st3" d="M188.4,21.5l4.6,7.6h-2.2l-3.6-5.9l-3.4,5.9h-2.2l4.6-7.6l-4.6-7.6h2.2l3.6,5.9l3.5-5.9h2.2L188.4,21.5z"/>
</svg>
