<svg width="210" height="47" viewBox="0 0 210 47" fill="none" xmlns="http://www.w3.org/2000/svg">
<g clip-path="url(#clip0)">
<path d="M6.29883 0.422852L43.2424 43.479C44.1927 44.5852 45.3661 45.472 46.6835 46.0795C48.0009 46.687 49.4316 47.001 50.879 47.0004H62.0136L25.07 3.94814C24.1199 2.8414 22.9466 1.95403 21.6292 1.34589C20.3119 0.737746 18.8811 0.422989 17.4334 0.422852H6.29883Z" fill="url(#paint0_linear)"/>
<path d="M95.08 5.72998L98.8699 0.422852H44.2618C42.3929 0.424062 40.5508 0.873559 38.8863 1.73457C37.2217 2.59559 35.782 3.84366 34.6848 5.37669L30.8949 10.6838L23.6184 20.8065H0L30.3644 31.056H16.2661L4.83586 47.0004H25.3921C27.26 47.0008 29.1016 46.5533 30.7661 45.6943C32.4306 44.8353 33.8709 43.5892 34.969 42.0581L42.8254 31.056H62.5327C64.3982 31.0543 66.2368 30.6057 67.8986 29.7468C69.5603 28.8878 70.9981 27.6429 72.0945 26.1137L75.8844 20.8065H50.1891L57.4543 10.6761H85.4993C87.3682 10.6764 89.2106 10.2284 90.8758 9.36871C92.541 8.50903 93.9817 7.26212 95.08 5.72998Z" fill="#8569F9"/>
<path d="M30.3644 31.0554C29.1896 31.1322 28.0147 31.1898 26.8399 31.2359C25.665 31.282 24.4902 31.3204 23.3153 31.355C22.1404 31.3895 20.9656 31.4164 19.7907 31.4279C18.6159 31.4394 17.441 31.4663 16.2662 31.4663L16.5959 31.2974C15.6522 32.6337 14.7009 33.9855 13.7383 35.2873C12.7757 36.5891 11.8093 37.9255 10.8391 39.2427C8.87972 41.8579 6.9052 44.4654 4.83594 46.9999C6.57548 44.2234 8.41357 41.5161 10.263 38.8164C11.1991 37.4762 12.1276 36.1283 13.0789 34.7996C14.0301 33.4709 14.9738 32.1384 15.9402 30.8135L16.0615 30.6445H16.2662C17.441 30.6445 18.6159 30.6714 19.7907 30.6868C20.9656 30.7021 22.1404 30.7329 23.3153 30.7597C24.4902 30.7866 25.665 30.825 26.8399 30.8788C28.0147 30.9325 29.182 30.9825 30.3644 31.0554Z" fill="#BAB3FF"/>
<path d="M98.8851 0.422515C91.8359 0.553081 84.7855 0.645245 77.7338 0.699008L67.1563 0.768131L56.5826 0.798852L46.0051 0.829574C45.1259 0.829574 44.2277 0.810373 43.3939 0.867976C40.8213 1.0543 38.3877 2.12138 36.4926 3.89404C35.8657 4.48378 35.3005 5.13752 34.8061 5.84485L33.2485 8.02608L30.1256 12.3501C28.0526 15.2418 25.9568 18.1104 23.8534 20.979L23.7624 21.1211H23.6184L17.7138 21.0712L11.8092 21.0059L5.9046 20.9252L0 20.8062L5.9046 20.7064L11.8092 20.6219L17.7138 20.5604L23.6184 20.5067L23.3797 20.6296C25.43 17.7225 27.4689 14.8078 29.5382 11.9047L32.6345 7.55757L34.1846 5.38787C34.7049 4.63407 35.3005 3.9366 35.962 3.30649C37.3006 2.04249 38.9029 1.1001 40.6501 0.549241C41.522 0.280684 42.4206 0.110683 43.3295 0.0423365C44.2542 -0.0229466 45.1221 0.00777481 46.0051 0.00393463L56.5826 0.0346561L67.1563 0.0653775L77.7338 0.149862C84.7805 0.201064 91.8309 0.291948 98.8851 0.422515Z" fill="#BAB3FF"/>
<path d="M75.8996 20.8065L49.6094 21.444L50.1816 20.7988L75.8996 20.8065Z" fill="#BAB3FF"/>
<path d="M108.143 15.2148V16.9775H101.022V22.5726H106.806V24.3353H101.022V31.8121H98.8848V15.2148H108.143Z" fill="white"/>
<path d="M112.866 15.2148V31.8121H110.729V15.2148H112.866Z" fill="white"/>
<path d="M129.386 31.8127H127.244L118.645 18.5986V31.8127H116.508V15.1924H118.645L127.244 28.3834V15.1924H129.386V31.8127Z" fill="white"/>
<path d="M143.105 15.2148V16.9775H138.64V31.8121H136.503V16.9775H132.016V15.2148H143.105Z" fill="white"/>
<path d="M149.001 30.8944C147.757 30.1794 146.729 29.1329 146.03 27.8684C145.292 26.5361 144.915 25.0296 144.938 23.5021C144.916 21.9733 145.292 20.4656 146.03 19.132C146.732 17.8755 147.759 16.8372 149.001 16.1289C150.279 15.419 151.713 15.0469 153.17 15.0469C154.627 15.0469 156.061 15.419 157.339 16.1289C158.582 16.8309 159.609 17.8658 160.31 19.1204C161.044 20.4596 161.416 21.9708 161.39 23.5021C161.416 25.0333 161.043 26.5444 160.31 27.8837C159.613 29.1435 158.588 30.185 157.347 30.8944C156.069 31.6044 154.635 31.9765 153.178 31.9765C151.72 31.9765 150.287 31.6044 149.009 30.8944H149.001ZM156.251 29.2854C157.174 28.7409 157.924 27.9417 158.415 26.9813C158.953 25.9121 159.223 24.725 159.2 23.5251C159.231 22.3059 158.962 21.098 158.415 20.0114C157.925 19.0543 157.179 18.256 156.263 17.7073C155.313 17.1757 154.246 16.897 153.161 16.897C152.076 16.897 151.008 17.1757 150.059 17.7073C149.145 18.2577 148.4 19.0556 147.91 20.0114C147.366 21.0909 147.095 22.2903 147.121 23.5021C147.1 24.7023 147.37 25.8894 147.91 26.9583C148.401 27.9187 149.151 28.7178 150.074 29.2624C151.019 29.794 152.082 30.0729 153.163 30.0729C154.243 30.0729 155.306 29.794 156.251 29.2624V29.2854Z" fill="white"/>
<path d="M173.466 15.2148V16.9775H166.345V22.5726H172.124V24.3353H166.345V31.8121H164.207V15.2148H173.466Z" fill="white"/>
<path d="M178.188 30.0495H183.922V31.8121H176.051V15.2148H178.188V30.0495Z" fill="white"/>
<path d="M188.356 16.9781V22.5233H194.306V24.3128H188.356V30.027H195.03V31.8127H186.199V15.1924H195.011V16.9781H188.356Z" fill="white"/>
<path d="M204.949 23.525L209.978 31.8121H207.56L203.634 25.3452L199.897 31.8236H197.525L202.531 23.525L197.502 15.2148H199.897L203.846 21.7163L207.606 15.2148H210.001L204.949 23.525Z" fill="white"/>
</g>
<defs>
<linearGradient id="paint0_linear" x1="11.9533" y1="-2.59169" x2="56.5175" y2="48.8275" gradientUnits="userSpaceOnUse">
<stop stop-color="#764EF5"/>
<stop offset="0.16" stop-color="#754DF3"/>
<stop offset="0.23" stop-color="#704AEC"/>
<stop offset="0.28" stop-color="#6845E0"/>
<stop offset="0.32" stop-color="#5C3ECE"/>
<stop offset="0.35" stop-color="#4C35B8"/>
<stop offset="0.38" stop-color="#3A299C"/>
<stop offset="0.39" stop-color="#342694"/>
<stop offset="0.66" stop-color="#342694"/>
<stop offset="0.69" stop-color="#3D2BA1"/>
<stop offset="0.78" stop-color="#563AC5"/>
<stop offset="0.87" stop-color="#6745E0"/>
<stop offset="0.94" stop-color="#724CEF"/>
<stop offset="1" stop-color="#764EF5"/>
</linearGradient>
<clipPath id="clip0">
<rect width="210" height="47" fill="white"/>
</clipPath>
</defs>
</svg>
