<?xml version="1.0" standalone="no"?>
<!DOCTYPE svg PUBLIC "-//W3C//DTD SVG 20010904//EN"
 "http://www.w3.org/TR/2001/REC-SVG-20010904/DTD/svg10.dtd">
<svg version="1.0" xmlns="http://www.w3.org/2000/svg"
 width="300.000000pt" height="300.000000pt" viewBox="0 0 300.000000 300.000000"
 preserveAspectRatio="xMidYMid meet">
<metadata>
Created by potrace 1.14, written by Peter Selinger 2001-2017
</metadata>
<g transform="translate(0.000000,300.000000) scale(0.100000,-0.100000)"
fill="#000000" stroke="none">
<path d="M1235 2197 c-97 -32 -155 -81 -241 -202 -37 -52 -68 -95 -70 -95 -1
0 -42 46 -90 103 -96 111 -102 117 -154 151 -54 35 -81 39 -293 42 l-197 2 26
-32 c15 -17 129 -149 253 -294 124 -145 227 -268 229 -273 2 -5 -78 -9 -195
-10 -362 -2 -493 -4 -493 -9 0 -3 190 -68 421 -145 424 -141 491 -167 414
-159 -38 3 -327 8 -352 5 -16 -2 -343 -464 -343 -486 0 -3 159 -5 353 -3 l352
3 56 26 c66 31 126 88 193 183 l49 70 25 -30 c29 -34 113 -130 139 -159 28
-32 75 -62 122 -79 32 -11 95 -15 239 -16 l196 -1 -20 23 c-11 13 -45 52 -75
88 -30 36 -57 67 -60 70 -3 3 -62 71 -131 152 l-126 147 256 3 c254 3 258 4
312 30 30 15 70 40 89 57 37 33 172 213 165 220 -2 3 -172 5 -378 5 -206 1
-376 3 -379 6 -3 3 18 37 47 75 29 39 77 104 108 146 l56 76 419 -1 c230 -1
441 2 470 6 67 8 148 46 193 89 33 32 160 200 160 213 0 6 9 6 -980 11 -580 4
-733 2 -765 -8z"/>
<path d="M2985 1500 c0 -137 3 -250 7 -250 5 0 8 113 8 250 0 138 -3 250 -8
250 -4 0 -7 -112 -7 -250z"/>
</g>
</svg>
