<?xml version="1.0" encoding="utf-8"?>
<!-- Generator: Adobe Illustrator 24.3.0, SVG Export Plug-In . SVG Version: 6.00 Build 0)  -->
<svg version="1.1" id="Слой_1" xmlns="http://www.w3.org/2000/svg" xmlns:xlink="http://www.w3.org/1999/xlink" x="0px" y="0px"
	 viewBox="0 0 40 40" style="enable-background:new 0 0 40 40;" xml:space="preserve">
<style type="text/css">
	.st0{fill:none;stroke:#85EBD1;}
	.st1{fill:url(#SVGID_1_);}
</style>
<g>
	<ellipse shape-rendering="crispEdges" class="st0" cx="19.9" cy="20" rx="20.1" ry="20"/>
</g>
<linearGradient id="SVGID_1_" gradientUnits="userSpaceOnUse" x1="-2.0091" y1="2.2131" x2="36.1173" y2="41.1055" gradientTransform="matrix(1 0 0 -1 0 42)">
	<stop  offset="0" style="stop-color:#7EF0D3"/>
	<stop  offset="0.3333" style="stop-color:#7CEED1"/>
	<stop  offset="0.7135" style="stop-color:#73F0D0"/>
	<stop  offset="1" style="stop-color:#46F5C7"/>
</linearGradient>
<path class="st1" d="M32.8,12.3c-0.3-0.4-0.8-0.7-1.3-0.7c-7.3-0.3-14.7-0.3-22,0c-0.5,0-1,0.3-1.3,0.7c-0.3,0.4-0.3,1-0.1,1.4
	c3.4,6.1,7.4,12.6,11.1,19c0.3,0.4,0.7,0.7,1.2,0.7c0.5,0,1-0.3,1.2-0.7c3.7-6.4,7.7-12.9,11.1-19C33.1,13.2,33.1,12.7,32.8,12.3z"
	/>
</svg>
