<?xml version="1.0" encoding="utf-8"?>
<!-- Generator: Adobe Illustrator 24.3.0, SVG Export Plug-In . SVG Version: 6.00 Build 0)  -->
<svg version="1.1" id="Слой_1" xmlns="http://www.w3.org/2000/svg" xmlns:xlink="http://www.w3.org/1999/xlink" x="0px" y="0px"
	 viewBox="0 0 40 40" style="enable-background:new 0 0 40 40;" xml:space="preserve">
<style type="text/css">
	.st0{fill:none;stroke:#FFB76F;}
	.st1{fill:url(#SVGID_1_);}
	.st2{fill:url(#SVGID_2_);}
	.st3{fill:url(#SVGID_3_);}
	.st4{fill:url(#SVGID_4_);}
	.st5{fill:url(#SVGID_5_);}
	.st6{fill:url(#SVGID_6_);}
	.st7{fill:url(#SVGID_7_);}
	.st8{fill:url(#SVGID_8_);}
</style>
<circle class="st0" cx="20" cy="20" r="20"/>
<linearGradient id="SVGID_1_" gradientUnits="userSpaceOnUse" x1="8.4883" y1="11.0625" x2="31.1157" y2="33.6899" gradientTransform="matrix(1 0 0 -1 0 42)">
	<stop  offset="0" style="stop-color:#FF4D5F"/>
	<stop  offset="1" style="stop-color:#FFFA78"/>
</linearGradient>
<path class="st1" d="M19.8,35.6c8.8,0,16-7.2,16-16c0-8.8-7.2-16-16-16c-8.8,0-16,7.2-16,16C3.8,28.5,11,35.6,19.8,35.6z"/>
<radialGradient id="SVGID_2_" cx="1.1751" cy="40.836" r="1" gradientTransform="matrix(16 0 0 -16 1.0001 673)" gradientUnits="userSpaceOnUse">
	<stop  offset="0" style="stop-color:#FF4C4C;stop-opacity:0.6"/>
	<stop  offset="0.139" style="stop-color:#FF5E51;stop-opacity:0.517"/>
	<stop  offset="0.415" style="stop-color:#FF8A5C;stop-opacity:0.351"/>
	<stop  offset="0.7983" style="stop-color:#FFD26E;stop-opacity:0.121"/>
	<stop  offset="1" style="stop-color:#FFFA78;stop-opacity:0"/>
</radialGradient>
<path class="st2" d="M19.8,35.6c8.8,0,16-7.2,16-16c0-8.8-7.2-16-16-16c-8.8,0-16,7.2-16,16C3.8,28.5,11,35.6,19.8,35.6z"/>
<linearGradient id="SVGID_3_" gradientUnits="userSpaceOnUse" x1="-2.2822" y1="-9.1269" x2="31.6261" y2="24.7814" gradientTransform="matrix(1 0 0 -1 0 42)">
	<stop  offset="0" style="stop-color:#FFF200"/>
	<stop  offset="1" style="stop-color:#FFFFFF"/>
</linearGradient>
<path class="st3" d="M29.8,9.8c-0.5-0.2-1.1-0.1-1.5,0.2c-0.9,0.9-1.8,1.8-2.7,2.8c0.4,5.6,0.8,11.3,0.9,16.9c0.9,0,1.9-0.1,2.8-0.1
	c0.8,0,1.4-0.7,1.5-1.5c0.3-5.7,0.3-11.3,0-17C30.7,10.6,30.3,10,29.8,9.8z"/>
<linearGradient id="SVGID_4_" gradientUnits="userSpaceOnUse" x1="-19.9531" y1="-16.0207" x2="35.4188" y2="39.3512" gradientTransform="matrix(1 0 0 -1 0 42)">
	<stop  offset="0" style="stop-color:#FFF200"/>
	<stop  offset="1" style="stop-color:#FFFFFF"/>
</linearGradient>
<path class="st4" d="M28,13.9c0.1,4.8,0.1,9.6-0.1,14.4c0,0.8-0.7,1.4-1.5,1.5c-5.4,0.1-10.7,0.1-16.1-0.1c-0.8,0-1.4-0.7-1.5-1.5
	c-0.3-5.7-0.3-11.3,0-17c0-0.6,0.4-1.1,0.9-1.3c0.5-0.2,1.1-0.1,1.5,0.2c1.2,1.2,2.4,2.4,3.7,3.7c1.3-1.3,2.6-2.6,3.8-3.8
	c0.6-0.6,1.4-0.6,2,0c1.3,1.3,2.5,2.5,3.8,3.8c0.3-0.3,0.6-0.6,0.9-0.9c0.4-0.4,1-0.5,1.5-0.3c0.2,0.1,0.3,0.2,0.5,0.3
	C27.8,13.1,28,13.5,28,13.9z"/>
<linearGradient id="SVGID_5_" gradientUnits="userSpaceOnUse" x1="13.104" y1="9.635" x2="29.2929" y2="25.8239" gradientTransform="matrix(1 0 0 -1 0 42)">
	<stop  offset="0" style="stop-color:#FF4D5F"/>
	<stop  offset="1" style="stop-color:#FFFA78"/>
</linearGradient>
<path class="st5" d="M25.6,16.8c-0.3,0.3-0.6,0.4-1,0.4c-0.6,0.7-1.3,1.3-1.9,2c0.6,0.7,1.3,1.3,1.9,2c1.1,0,2.3,0,3.4,0
	c0-2.2,0-4.4,0-6.7C27.2,15.2,26.4,16,25.6,16.8z"/>
<linearGradient id="SVGID_6_" gradientUnits="userSpaceOnUse" x1="7.8144" y1="13.9013" x2="26.8807" y2="32.9675" gradientTransform="matrix(1 0 0 -1 0 42)">
	<stop  offset="0" style="stop-color:#FF4D5F"/>
	<stop  offset="1" style="stop-color:#FFFA78"/>
</linearGradient>
<path class="st6" d="M23.6,16.7c-1.3-1.3-2.6-2.5-3.8-3.8c-1.3,1.3-2.5,2.5-3.8,3.8c-0.6,0.6-1.5,0.6-2,0c-0.8-0.8-1.6-1.5-2.3-2.3
	c0,2.2-0.1,4.4,0,6.7c4.4,0,8.7,0,13.1,0c0-1.3,0-2.6,0-4C24.3,17.2,23.9,17,23.6,16.7z"/>
<linearGradient id="SVGID_7_" gradientUnits="userSpaceOnUse" x1="13.4722" y1="4.0402" x2="29.0736" y2="19.6416" gradientTransform="matrix(1 0 0 -1 0 42)">
	<stop  offset="0" style="stop-color:#FF4D5F"/>
	<stop  offset="1" style="stop-color:#FFFA78"/>
</linearGradient>
<path class="st7" d="M24.6,24c-0.6,0.5-1.3,1-1.9,1.5c0.6,0.5,1.3,0.9,1.9,1.4c1.1,0,2.2,0,3.4-0.1c0-0.9,0-1.9,0.1-2.8
	C26.9,24,25.7,24,24.6,24z"/>
<linearGradient id="SVGID_8_" gradientUnits="userSpaceOnUse" x1="9.8319" y1="8.3325" x2="26.4687" y2="24.9694" gradientTransform="matrix(1 0 0 -1 0 42)">
	<stop  offset="0" style="stop-color:#FF4D5F"/>
	<stop  offset="1" style="stop-color:#FFFA78"/>
</linearGradient>
<path class="st8" d="M11.6,24c0,0.9,0,1.9,0.1,2.8c4.3,0.1,8.6,0.1,12.9,0.1c0-1,0-1.9,0-2.9C20.3,24,15.9,24,11.6,24z"/>
</svg>
