<?xml version="1.0" encoding="utf-8"?>
<!-- Generator: Adobe Illustrator 24.3.0, SVG Export Plug-In . SVG Version: 6.00 Build 0)  -->
<svg version="1.1" id="Слой_1" xmlns="http://www.w3.org/2000/svg" xmlns:xlink="http://www.w3.org/1999/xlink" x="0px" y="0px"
	 viewBox="0 0 40 40" style="enable-background:new 0 0 40 40;" xml:space="preserve">
<style type="text/css">
	.st0{fill:none;stroke:#E39FC9;}
	.st1{fill:url(#SVGID_1_);}
</style>
<circle class="st0" cx="20" cy="20" r="20"/>
<linearGradient id="SVGID_1_" gradientUnits="userSpaceOnUse" x1="3.8617" y1="9.135" x2="33.3919" y2="39.1291" gradientTransform="matrix(1 0 0 -1 0 42)">
	<stop  offset="0" style="stop-color:#DA7EB6"/>
	<stop  offset="1" style="stop-color:#FFDEF2"/>
</linearGradient>
<path class="st1" d="M29.9,8c-2.3-0.1-4.2,1.5-4.7,3.7c-3.5,0-7,0-10.4,0c-0.5-2.2-2.4-3.8-4.7-3.7c-2.7,0.1-5,2.3-5.1,5
	c-0.1,2.6,2.1,4.8,4.9,4.7c0.5,0,1-0.1,1.5-0.2c1.7,3,3.5,6,5.3,9c-1,0.9-1.6,2.2-1.6,3.6c0,2.7,2.3,4.9,4.9,4.9
	c2.7,0,4.9-2.2,4.9-4.9c0-1.4-0.6-2.7-1.6-3.6c1.8-3,3.5-6,5.3-9c0.5,0.1,1,0.2,1.5,0.2c2.7,0,5-2.1,4.9-4.7
	C34.9,10.3,32.6,8.1,29.9,8z M20,25.2c-0.5,0-1,0.1-1.5,0.2c-0.5-0.8-0.9-1.6-1.4-2.4c1.9,0,3.8,0,5.8,0c-0.5,0.8-0.9,1.6-1.4,2.4
	C21,25.2,20.5,25.2,20,25.2z M24.2,20.8c-2.8,0-5.6,0-8.3,0c-0.9-1.5-1.7-2.9-2.6-4.4c0.7-0.7,1.3-1.5,1.5-2.5c3.5,0,7,0,10.5,0
	c0.2,1,0.8,1.8,1.5,2.5C25.9,17.9,25,19.3,24.2,20.8z"/>
</svg>
