<?xml version="1.0" encoding="utf-8"?>
<!-- Generator: Adobe Illustrator 24.3.0, SVG Export Plug-In . SVG Version: 6.00 Build 0)  -->
<svg version="1.1" id="Слой_1" xmlns="http://www.w3.org/2000/svg" xmlns:xlink="http://www.w3.org/1999/xlink" x="0px" y="0px"
	 viewBox="0 0 40 40" style="enable-background:new 0 0 40 40;" xml:space="preserve">
<style type="text/css">
	.st0{fill:none;stroke:#E146F9;}
	.st1{fill:url(#SVGID_1_);}
	.st2{fill:url(#SVGID_2_);}
	.st3{fill:url(#SVGID_3_);}
	.st4{fill:url(#SVGID_4_);}
	.st5{fill:url(#SVGID_5_);}
	.st6{fill:url(#SVGID_6_);}
	.st7{fill:url(#SVGID_7_);}
	.st8{fill:url(#SVGID_8_);}
	.st9{fill:url(#SVGID_9_);}
	.st10{fill:url(#SVGID_10_);}
	.st11{fill:url(#SVGID_11_);}
	.st12{fill:url(#SVGID_12_);}
</style>
<circle class="st0" cx="20" cy="20" r="20"/>
<linearGradient id="SVGID_1_" gradientUnits="userSpaceOnUse" x1="2.032" y1="4.1903" x2="29.1392" y2="31.2975" gradientTransform="matrix(1 0 0 -1 0 42)">
	<stop  offset="0" style="stop-color:#364AFF"/>
	<stop  offset="1" style="stop-color:#FC54FF"/>
</linearGradient>
<path class="st1" d="M20.3,8.7c-5.9,0-10.9,5-10.9,10.9c0,5.9,5,10.9,10.9,10.9c5.9,0,10.9-5,10.9-10.9C31.2,13.7,26.2,8.7,20.3,8.7
	z"/>
<linearGradient id="SVGID_2_" gradientUnits="userSpaceOnUse" x1="10.8909" y1="12.7039" x2="27.8886" y2="29.7015" gradientTransform="matrix(1 0 0 -1 0 42)">
	<stop  offset="0" style="stop-color:#364AFF"/>
	<stop  offset="1" style="stop-color:#FC54FF"/>
</linearGradient>
<path class="st2" d="M21.4,27.2c-5.9,0-10.9-4.9-10.9-10.8c0-0.6,0.1-1.2,0.2-1.8c-0.8,1.5-1.3,3.2-1.3,5c0,5.9,5,10.9,10.9,10.9
	c5.3,0,9.8-4.1,10.7-9.1C29.2,24.7,25.5,27.2,21.4,27.2z"/>
<radialGradient id="SVGID_3_" cx="1.6228" cy="40.4337" r="1" gradientTransform="matrix(13.322 0 0 -13.322 -1.3222 558.202)" gradientUnits="userSpaceOnUse">
	<stop  offset="0" style="stop-color:#FC54FF;stop-opacity:0"/>
	<stop  offset="0.3306" style="stop-color:#FA52FE;stop-opacity:0.247"/>
	<stop  offset="0.4801" style="stop-color:#F34DFC;stop-opacity:0.358"/>
	<stop  offset="0.5931" style="stop-color:#E643F8;stop-opacity:0.443"/>
	<stop  offset="0.6878" style="stop-color:#D436F2;stop-opacity:0.513"/>
	<stop  offset="0.771" style="stop-color:#BC24EA;stop-opacity:0.575"/>
	<stop  offset="0.845" style="stop-color:#A00EE1;stop-opacity:0.63"/>
	<stop  offset="0.8847" style="stop-color:#8D00DB;stop-opacity:0.66"/>
</radialGradient>
<path class="st3" d="M20.3,8.7c-5.9,0-10.9,5-10.9,10.9c0,5.9,5,10.9,10.9,10.9c5.9,0,10.9-5,10.9-10.9C31.2,13.7,26.2,8.7,20.3,8.7
	z"/>
<radialGradient id="SVGID_4_" cx="1.6228" cy="40.4337" r="1" gradientTransform="matrix(13.322 0 0 -13.322 -5.8535 555.4978)" gradientUnits="userSpaceOnUse">
	<stop  offset="0.1697" style="stop-color:#8D00DB;stop-opacity:0.66"/>
	<stop  offset="0.2111" style="stop-color:#A513E3;stop-opacity:0.627"/>
	<stop  offset="0.2688" style="stop-color:#C027EC;stop-opacity:0.581"/>
	<stop  offset="0.335" style="stop-color:#D638F3;stop-opacity:0.529"/>
	<stop  offset="0.4121" style="stop-color:#E744F8;stop-opacity:0.467"/>
	<stop  offset="0.5072" style="stop-color:#F34DFC;stop-opacity:0.392"/>
	<stop  offset="0.6398" style="stop-color:#FA53FE;stop-opacity:0.286"/>
	<stop  offset="1" style="stop-color:#FC54FF;stop-opacity:0"/>
</radialGradient>
<path class="st4" d="M20.3,8.7c-5.9,0-10.9,5-10.9,10.9c0,5.9,5,10.9,10.9,10.9c5.9,0,10.9-5,10.9-10.9C31.2,13.7,26.2,8.7,20.3,8.7
	z"/>
<radialGradient id="SVGID_5_" cx="0.3772" cy="41.5663" r="1" gradientTransform="matrix(-13.322 0 0 13.322 29.8531 -536.9061)" gradientUnits="userSpaceOnUse">
	<stop  offset="0.1697" style="stop-color:#8D00DB;stop-opacity:0.66"/>
	<stop  offset="0.2111" style="stop-color:#A513E3;stop-opacity:0.627"/>
	<stop  offset="0.2688" style="stop-color:#C027EC;stop-opacity:0.581"/>
	<stop  offset="0.335" style="stop-color:#D638F3;stop-opacity:0.529"/>
	<stop  offset="0.4121" style="stop-color:#E744F8;stop-opacity:0.467"/>
	<stop  offset="0.5072" style="stop-color:#F34DFC;stop-opacity:0.392"/>
	<stop  offset="0.6398" style="stop-color:#FA53FE;stop-opacity:0.286"/>
	<stop  offset="1" style="stop-color:#FC54FF;stop-opacity:0"/>
</radialGradient>
<path class="st5" d="M20.3,8.7c5.9,0,10.9,5,10.9,10.9c0,5.9-5,10.9-10.9,10.9c-5.9,0-10.9-5-10.9-10.9C9.4,13.7,14.4,8.7,20.3,8.7z
	"/>
<radialGradient id="SVGID_6_" cx="1.6228" cy="40.4337" r="1" gradientTransform="matrix(13.322 0 0 -13.322 -1.0786 563.659)" gradientUnits="userSpaceOnUse">
	<stop  offset="0.1697" style="stop-color:#8D00DB;stop-opacity:0.66"/>
	<stop  offset="0.2111" style="stop-color:#A513E3;stop-opacity:0.627"/>
	<stop  offset="0.2688" style="stop-color:#C027EC;stop-opacity:0.581"/>
	<stop  offset="0.335" style="stop-color:#D638F3;stop-opacity:0.529"/>
	<stop  offset="0.4121" style="stop-color:#E744F8;stop-opacity:0.467"/>
	<stop  offset="0.5072" style="stop-color:#F34DFC;stop-opacity:0.392"/>
	<stop  offset="0.6398" style="stop-color:#FA53FE;stop-opacity:0.286"/>
	<stop  offset="1" style="stop-color:#FC54FF;stop-opacity:0"/>
</radialGradient>
<path class="st6" d="M20.3,8.7c-5.9,0-10.9,5-10.9,10.9c0,5.9,5,10.9,10.9,10.9c5.9,0,10.9-5,10.9-10.9C31.2,13.7,26.2,8.7,20.3,8.7
	z"/>
<linearGradient id="SVGID_7_" gradientUnits="userSpaceOnUse" x1="15.5516" y1="12.2438" x2="23.1603" y2="19.8526" gradientTransform="matrix(1 0 0 -1 0 42)">
	<stop  offset="0" style="stop-color:#FDA0FF"/>
	<stop  offset="1" style="stop-color:#FFFFFF"/>
</linearGradient>
<path class="st7" d="M20.3,21.8c-1.8,0-3.2,1.4-3.2,3.2c0,1.8,1.5,3.2,3.2,3.3c1.8,0,3.2-1.5,3.2-3.3C23.5,23.2,22.1,21.8,20.3,21.8
	z"/>
<linearGradient id="SVGID_8_" gradientUnits="userSpaceOnUse" x1="17.473" y1="14.1632" x2="23.7436" y2="20.4337" gradientTransform="matrix(1 0 0 -1 0 42)">
	<stop  offset="0" style="stop-color:#FDA0FF"/>
	<stop  offset="1" style="stop-color:#FFFFFF"/>
</linearGradient>
<path class="st8" d="M21.4,26.1c-1.8,0-3.2-1.5-3.2-3.2c0-0.1,0-0.2,0-0.3c-0.7,0.6-1.1,1.5-1.1,2.4c0,1.8,1.5,3.2,3.2,3.3
	c1.7,0,3.1-1.3,3.2-3C22.9,25.8,22.2,26.1,21.4,26.1z"/>
<linearGradient id="SVGID_9_" gradientUnits="userSpaceOnUse" x1="20.297" y1="20.4517" x2="27.8816" y2="28.0363" gradientTransform="matrix(1 0 0 -1 0 42)">
	<stop  offset="0" style="stop-color:#FDA0FF"/>
	<stop  offset="1" style="stop-color:#FFFFFF"/>
</linearGradient>
<path class="st9" d="M25,13.6c-1.8,0-3.2,1.4-3.2,3.2c0,1.8,1.5,3.2,3.2,3.2c1.8,0,3.2-1.4,3.2-3.2C28.3,15.1,26.8,13.6,25,13.6z"/>
<linearGradient id="SVGID_10_" gradientUnits="userSpaceOnUse" x1="22.2085" y1="22.3633" x2="28.4811" y2="28.6359" gradientTransform="matrix(1 0 0 -1 0 42)">
	<stop  offset="0" style="stop-color:#FDA0FF"/>
	<stop  offset="1" style="stop-color:#FFFFFF"/>
</linearGradient>
<path class="st10" d="M26.1,17.9c-1.8,0-3.2-1.5-3.2-3.2c0-0.1,0-0.2,0-0.3c-0.7,0.6-1.1,1.5-1.1,2.4c0,1.8,1.5,3.2,3.2,3.2
	c1.7,0,3.1-1.3,3.2-3C27.7,17.6,26.9,17.9,26.1,17.9z"/>
<linearGradient id="SVGID_11_" gradientUnits="userSpaceOnUse" x1="10.8064" y1="20.4216" x2="18.4393" y2="28.0546" gradientTransform="matrix(1 0 0 -1 0 42)">
	<stop  offset="0" style="stop-color:#FDA0FF"/>
	<stop  offset="1" style="stop-color:#FFFFFF"/>
</linearGradient>
<path class="st11" d="M15.6,13.6c-1.8,0-3.2,1.5-3.3,3.2c0,1.8,1.4,3.2,3.2,3.2c1.8,0,3.2-1.5,3.2-3.2C18.8,15,17.4,13.6,15.6,13.6z
	"/>
<linearGradient id="SVGID_12_" gradientUnits="userSpaceOnUse" x1="12.7315" y1="22.3464" x2="19.0274" y2="28.6424" gradientTransform="matrix(1 0 0 -1 0 42)">
	<stop  offset="0" style="stop-color:#FDA0FF"/>
	<stop  offset="1" style="stop-color:#FFFFFF"/>
</linearGradient>
<path class="st12" d="M16.6,17.9c-1.8,0-3.2-1.4-3.2-3.2c0-0.1,0-0.2,0-0.3c-0.7,0.6-1.1,1.5-1.1,2.4c0,1.8,1.4,3.2,3.2,3.2
	c1.7,0,3.1-1.3,3.2-3C18.2,17.6,17.5,17.9,16.6,17.9z"/>
</svg>
