<?xml version="1.0" encoding="utf-8"?>
<!-- Generator: Adobe Illustrator 24.3.0, SVG Export Plug-In . SVG Version: 6.00 Build 0)  -->
<svg version="1.1" id="Слой_1" xmlns="http://www.w3.org/2000/svg" xmlns:xlink="http://www.w3.org/1999/xlink" x="0px" y="0px"
	 viewBox="0 0 66 66" style="enable-background:new 0 0 66 66;" xml:space="preserve">
<style type="text/css">
	.st0{fill:url(#SVGID_1_);}
	.st1{fill:url(#SVGID_2_);}
	.st2{fill:none;stroke:#FFFFFF;stroke-width:8;}
</style>
<linearGradient id="SVGID_1_" gradientUnits="userSpaceOnUse" x1="9.6655" y1="11.6655" x2="56.3346" y2="58.3345" gradientTransform="matrix(1 0 0 -1 0 68)">
	<stop  offset="0" style="stop-color:#00718A"/>
	<stop  offset="1.000000e-04" style="stop-color:#BCBCBC"/>
	<stop  offset="1" style="stop-color:#B9B9B9"/>
</linearGradient>
<path class="st0" d="M33,66c18.2,0,33-14.8,33-33C66,14.8,51.2,0,33,0C14.8,0,0,14.8,0,33C0,51.2,14.8,66,33,66z"/>
<radialGradient id="SVGID_2_" cx="0.9477" cy="67.0155" r="1.041" gradientTransform="matrix(68.1565 -84.0069 -84.007 -68.1564 5573.0151 4713.1523)" gradientUnits="userSpaceOnUse">
	<stop  offset="0" style="stop-color:#969696;stop-opacity:0.8"/>
	<stop  offset="0.109" style="stop-color:#CDCDCD;stop-opacity:0.713"/>
	<stop  offset="0.3385" style="stop-color:#E3E3E3;stop-opacity:0.5414"/>
	<stop  offset="0.6028" style="stop-color:#FFFFFF;stop-opacity:0.318"/>
	<stop  offset="0.9518" style="stop-color:#E6E6E6;stop-opacity:3.900000e-02"/>
	<stop  offset="1" style="stop-color:#33FFFF;stop-opacity:0"/>
	<stop  offset="1" style="stop-color:#F4F4F4;stop-opacity:0"/>
</radialGradient>
<path class="st1" d="M33,66c18.2,0,33-14.8,33-33C66,14.8,51.2,0,33,0C14.8,0,0,14.8,0,33C0,51.2,14.8,66,33,66z"/>
<path class="st2" d="M41,51.7c-2.7,1.6-5.5,3.3-8.1,4.9c-2.7-1.6-5.4-3.2-8.1-4.9c-4.1-2.4-8.2-4.9-12.3-7.3c-0.1-7.7-0.1-15.4,0-23
	c4.1-2.4,8.2-4.9,12.3-7.3c2.7-1.6,5.5-3.3,8.2-4.9c2.7,1.6,5.4,3.2,8.1,4.9c4.1,2.4,8.2,4.9,12.3,7.3c0.1,7.7,0.1,15.4,0,23
	C49.2,46.8,45,49.3,41,51.7z"/>
</svg>
